<?xml version="1.0" standalone="no"?>
<!DOCTYPE svg PUBLIC "-//W3C//DTD SVG 20010904//EN"
 "https://www.w3.org/TR/2001/REC-SVG-20010904/DTD/svg10.dtd">
<svg version="1.0" xmlns="https://www.w3.org/2000/svg"
 width="225.000000pt" height="225.000000pt" viewBox="0 0 225.000000 225.000000"
 preserveAspectRatio="xMidYMid meet">

<g transform="translate(0.000000,225.000000) scale(0.100000,-0.100000)"
fill="#ffffff" stroke="none">
<path d="M939 2135 c-487 -92 -839 -516 -839 -1010 0 -567 458 -1025 1025
-1025 568 0 1025 458 1025 1026 0 468 -317 874 -778 996 -102 26 -326 33 -433
13z m341 -56 c100 -15 252 -71 342 -125 153 -91 312 -270 383 -430 81 -181
106 -399 67 -584 -24 -118 -69 -232 -130 -330 -59 -96 -206 -243 -302 -302
-277 -171 -618 -195 -914 -63 -160 71 -339 230 -430 383 -54 90 -110 242 -125
342 -14 83 -14 227 0 310 15 100 71 252 125 342 61 102 203 249 301 312 110
71 249 125 371 146 70 11 238 11 312 -1z"/>
<path d="M524 1536 l-34 -34 0 -377 0 -377 34 -34 34 -34 567 0 567 0 34 34
34 34 0 377 0 377 -34 34 -34 34 -567 0 -567 0 -34 -34z m1160 -42 c9 -8 16
-30 16 -48 0 -30 -17 -45 -282 -251 -155 -121 -287 -220 -293 -220 -6 0 -138
99 -293 220 -264 206 -282 222 -282 252 0 66 -26 63 575 63 481 0 545 -2 559
-16z m-815 -412 c-1 -4 -73 -74 -160 -155 l-159 -149 0 281 0 281 160 -126
c88 -69 160 -128 159 -132z m831 -23 l0 -281 -159 149 c-87 81 -158 152 -157
157 2 7 302 251 314 255 1 1 2 -125 2 -280z m-667 -98 c43 -33 84 -61 92 -61
7 0 55 33 107 74 l93 74 98 -92 c54 -50 129 -119 165 -153 l67 -62 -530 -1
c-525 0 -529 0 -510 19 11 11 85 80 165 154 122 114 147 133 160 122 8 -6 50
-40 93 -74z"/>
</g>
</svg>
