<?xml version="1.0" standalone="no"?>
<!DOCTYPE svg PUBLIC "-//W3C//DTD SVG 20010904//EN"
 "https://www.w3.org/TR/2001/REC-SVG-20010904/DTD/svg10.dtd">
<svg version="1.0" xmlns="https://www.w3.org/2000/svg"
 width="430.000000pt" height="443.000000pt" viewBox="0 0 430.000000 443.000000"
 preserveAspectRatio="xMidYMid meet">

<g transform="translate(0.000000,443.000000) scale(0.100000,-0.100000)"
fill="#000000" stroke="none">
<path d="M1915 4268 c-117 -13 -290 -54 -423 -99 -303 -104 -564 -271 -798
-510 -311 -318 -495 -694 -560 -1139 -25 -177 -15 -520 21 -690 171 -812 782
-1422 1600 -1597 124 -27 142 -28 405 -28 262 1 281 2 401 28 184 40 325 89
484 167 245 120 397 231 586 428 370 385 568 873 569 1404 0 414 -117 800
-347 1143 -208 309 -467 533 -808 700 -218 107 -435 172 -656 195 -113 12
-363 11 -474 -2z m485 -112 c498 -67 923 -302 1245 -687 478 -571 580 -1380
261 -2054 -248 -522 -702 -898 -1267 -1049 -319 -85 -714 -77 -1036 20 -722
219 -1252 836 -1358 1582 -26 180 -17 492 18 652 64 287 145 478 298 705 274
404 699 691 1180 799 204 45 464 58 659 32z"/>
<path d="M1379 3193 c-74 -38 -111 -93 -117 -172 -5 -71 10 -121 51 -167 90
-103 244 -103 334 0 63 71 70 177 17 263 -36 60 -113 103 -184 103 -31 0 -65
-9 -101 -27z"/>
<path d="M2468 2616 c-87 -25 -168 -86 -215 -162 -10 -16 -12 -3 -12 69 l-1
87 -190 0 -190 0 0 -620 0 -620 190 0 189 0 3 368 3 367 30 60 c21 42 43 69
73 90 40 27 51 30 125 30 98 0 133 -19 167 -90 33 -68 39 -149 40 -502 l0
-323 191 0 191 0 -5 438 c-4 372 -7 447 -22 507 -35 142 -103 232 -214 283
-50 24 -70 27 -181 29 -81 1 -141 -3 -172 -11z"/>
<path d="M1290 1990 l0 -620 190 0 190 0 0 620 0 620 -190 0 -190 0 0 -620z"/>
</g>
</svg>
