<?xml version="1.0" standalone="no"?>
<!DOCTYPE svg PUBLIC "-//W3C//DTD SVG 20010904//EN"
 "http://www.w3.org/TR/2001/REC-SVG-20010904/DTD/svg10.dtd">
<svg version="1.0" xmlns="http://www.w3.org/2000/svg"
 width="507.000000pt" height="495.000000pt" viewBox="0 0 507.000000 495.000000"
 preserveAspectRatio="xMidYMid meet">

<g transform="translate(0.000000,495.000000) scale(0.100000,-0.100000)"
fill="#000000" stroke="none">
<path d="M2135 4664 c-497 -78 -989 -359 -1303 -746 -152 -187 -293 -442 -366
-658 -329 -984 115 -2063 1044 -2537 270 -138 552 -209 875 -220 583 -20 1136
199 1549 612 275 275 461 608 555 995 44 178 54 296 48 551 -4 190 -9 242 -31
347 -79 371 -245 699 -501 985 -317 357 -772 602 -1246 671 -135 20 -495 20
-624 0z m650 -118 c640 -116 1179 -526 1454 -1106 132 -278 190 -538 191 -847
0 -456 -152 -889 -437 -1243 -78 -96 -256 -269 -353 -341 -418 -312 -948 -448
-1470 -378 -102 14 -322 72 -431 114 -470 181 -857 542 -1075 1000 -314 662
-236 1445 204 2034 76 102 247 277 352 361 278 221 612 365 965 415 133 19
475 14 600 -9z"/>
<path d="M2801 3510 c-80 -17 -188 -76 -244 -132 -93 -94 -137 -207 -137 -350
l0 -78 -39 0 c-57 0 -195 27 -286 57 -107 34 -204 81 -300 144 -83 54 -256
199 -301 252 -21 25 -27 28 -35 16 -17 -26 -50 -143 -55 -199 -13 -118 40
-263 130 -359 l51 -54 -47 5 c-26 3 -65 15 -88 27 -22 11 -42 21 -44 21 -7 0
6 -95 20 -155 32 -133 138 -235 309 -300 19 -7 18 -8 -5 -15 -14 -5 -55 -8
-92 -9 -38 -1 -68 -5 -68 -11 0 -40 80 -160 133 -198 49 -34 173 -87 233 -98
21 -3 43 -9 47 -11 13 -8 -92 -81 -168 -117 -91 -43 -231 -75 -358 -83 -56 -3
-108 -9 -115 -13 -29 -15 231 -116 387 -151 383 -84 739 -19 1061 195 333 222
552 618 577 1041 l6 109 87 86 c48 47 95 100 104 118 9 17 15 32 13 32 -1 0
-28 -9 -58 -19 -30 -11 -79 -23 -107 -27 l-53 -7 58 60 c53 54 122 167 110
179 -3 3 -38 -9 -78 -26 -41 -17 -103 -39 -139 -49 l-66 -19 -49 41 c-86 69
-163 99 -263 103 -48 2 -107 -1 -131 -6z"/>
</g>
</svg>
