<?xml version="1.0" encoding="utf-8"?>
<!-- Svg Vector Icons : http://www.onlinewebfonts.com/icon -->
<!DOCTYPE svg PUBLIC "-//W3C//DTD SVG 1.1//EN" "http://www.w3.org/Graphics/SVG/1.1/DTD/svg11.dtd">
<svg version="1.1" xmlns="http://www.w3.org/2000/svg" xmlns:xlink="http://www.w3.org/1999/xlink" x="0px" y="0px" viewBox="0 0 1000 1000" enable-background="new 0 0 1000 1000" xml:space="preserve">
<metadata> Svg Vector Icons : http://www.onlinewebfonts.com/icon </metadata>
<g><path style="fill:#ffffff" d="M500,10C229.8,10,10,229.8,10,500c0,270.2,219.8,490,490,490c270.2,0,490-219.8,490-490C990,229.8,770.2,10,500,10z M500,957.3C247.8,957.3,42.7,752.2,42.7,500S247.8,42.7,500,42.7c252.2,0,457.3,205.2,457.3,457.3S752.2,957.3,500,957.3L500,957.3z M768.7,348.6c3.4-6.2,6.2-12.8,8.3-19.6c2-6.5-0.1-13.5-5.4-17.8c-5.3-4.2-12.7-4.7-18.5-1.3c-15.7,9.3-32.5,16.2-50.3,20.6c-21.3-19.3-49.4-30.2-78.3-30.2c-64.3,0-116.6,52.3-116.6,116.6c0,1.6,0,3.2,0.1,4.8c-68.3-8.5-131.3-43.2-175.3-97.1c-3.4-4.2-8.6-6.3-13.9-6c-5.3,0.4-10.1,3.4-12.8,8.1c-10.3,17.7-15.8,38-15.8,58.6c0,19.6,4.9,38.4,13.8,55.1c-2.3,0.4-4.5,1.2-6.5,2.4c-5,3-8.1,8.9-8.1,14.7c0,34.7,15.4,66.5,40.3,88.2c-0.4,0.3-0.7,0.7-1.1,1.1c-3.8,4.3-5.1,10.3-3.3,15.8c10.7,33.4,35.6,59.5,66.7,72.3c-31.8,15.7-68.8,21.9-104.1,17.7c-7.5-0.7-14.7,3.5-17.3,10.8c-2.5,7.2,0.2,15.1,6.6,19.3c48.6,31.2,104.8,47.6,162.5,47.6c188.8,0,301.7-153.4,301.7-301.7c0-1.7,0-3.3,0-5c18.2-14.2,34.1-31.3,47.1-50.7c4-6,3.6-14-1.1-19.6C782.9,347.7,775.3,345.8,768.7,348.6L768.7,348.6z M715.4,402.2c-4.5,3.2-7.1,8.5-6.8,14.1c0.2,4,0.3,8.1,0.3,12.2c0,132.3-100.6,269.1-269,269.1c-30.2,0-60-5.1-88.2-14.9c33.8-6.4,65.4-20.8,93-42.5c5.4-4.3,7.6-11.5,5.4-18.1c-2.2-6.5-8.3-11-15.2-11.1c-27.2-0.6-51.9-14.1-67-35.5c7.7-0.5,15.3-1.8,22.7-3.8c7.3-2,12.3-8.7,12-16.3c-0.2-7.5-5.7-14-13.1-15.5c-30.7-6.1-54.7-28.8-63.6-58.2c8.1,2,16.5,3.2,24.8,3.5c7.2,0,13.8-4.4,16.1-11.3c2.2-6.9-0.4-14.5-6.5-18.5c-23.4-15.6-37.3-41.7-37.3-69.9c0-6.8,0.8-13.5,2.4-20.1c52.9,54.2,124.7,87,200.7,90.8c5.4,0,10.1-1.9,13.4-5.8c3.3-3.9,4.5-9.2,3.4-14.2c-1.4-6.2-2.2-12.7-2.2-19.2c0-46.3,37.7-83.9,84-83.9c23.1,0,45.5,9.7,61.3,26.5c3.8,4.1,9.5,5.9,15.1,4.9c5-1,10-2.2,14.9-3.5c-2.2,1.6-4.5,3.2-6.9,4.6c-6.6,3.9-9.5,12-7.1,19.3c2.5,7.3,9.9,12,17.4,10.9c1.9-0.2,3.7-0.5,5.6-0.7C721.8,397.5,718.6,399.9,715.4,402.2L715.4,402.2z"/></g>
</svg>