<?xml version="1.0" standalone="no"?>
<!DOCTYPE svg PUBLIC "-//W3C//DTD SVG 20010904//EN"
 "https://www.w3.org/TR/2001/REC-SVG-20010904/DTD/svg10.dtd">
<svg version="1.0" xmlns="https://www.w3.org/2000/svg"
 width="446.000000pt" height="438.000000pt" viewBox="0 0 446.000000 438.000000"
 preserveAspectRatio="xMidYMid meet">

<g transform="translate(0.000000,438.000000) scale(0.100000,-0.100000)"
fill="#ffffff" stroke="none">
<path d="M1955 4230 c-357 -38 -749 -201 -1036 -430 -94 -75 -262 -244 -334
-335 -199 -255 -333 -541 -403 -864 -26 -120 -27 -138 -27 -406 0 -266 2 -286
27 -405 65 -301 190 -578 369 -816 326 -434 811 -723 1344 -799 136 -20 455
-19 587 0 424 64 800 247 1107 540 332 316 538 704 618 1165 24 135 24 497 0
635 -153 877 -806 1540 -1672 1697 -125 22 -444 32 -580 18z m465 -115 c421
-52 807 -237 1108 -529 303 -294 491 -652 569 -1086 24 -137 24 -457 -1 -605
-66 -396 -245 -752 -520 -1034 -179 -183 -347 -304 -567 -410 -266 -128 -507
-181 -821 -182 -281 0 -539 53 -779 160 -622 278 -1057 860 -1140 1528 -15
125 -15 383 0 493 44 321 182 658 373 909 329 436 824 710 1378 764 95 10 289
5 400 -8z"/>
<path d="M2105 3425 c-352 -62 -664 -296 -823 -618 -80 -162 -112 -307 -112
-501 0 -190 33 -332 116 -499 l38 -77 -76 -272 c-42 -150 -76 -274 -75 -275 1
-1 132 29 291 67 l288 68 82 -39 c129 -62 255 -91 426 -96 110 -4 166 -1 235
12 244 45 441 151 614 330 225 233 332 513 318 833 -22 511 -370 932 -867
1052 -120 29 -336 36 -455 15z m305 -175 c229 -29 417 -125 578 -295 358 -378
343 -965 -35 -1326 -187 -179 -397 -262 -658 -262 -161 0 -264 23 -415 94
l-105 50 -168 -39 c-105 -25 -167 -35 -167 -28 0 6 18 76 40 156 22 80 40 150
40 156 0 6 -20 45 -44 87 -95 168 -139 381 -117 570 42 354 271 650 603 781
141 55 295 75 448 56z"/>
<path d="M1793 2776 c-48 -40 -77 -118 -77 -203 0 -63 4 -80 41 -155 73 -146
201 -287 397 -440 242 -188 427 -244 568 -175 110 54 138 104 101 181 -27 58
-232 184 -279 172 -14 -4 -40 -31 -64 -66 -48 -70 -56 -72 -151 -31 -96 41
-176 97 -226 160 -55 70 -103 153 -103 178 0 10 23 41 50 68 66 65 66 88 1
175 -81 107 -130 149 -182 156 -39 5 -49 3 -76 -20z"/>
</g>
</svg>
