<?xml version="1.0" standalone="no"?>
<!DOCTYPE svg PUBLIC "-//W3C//DTD SVG 20010904//EN"
 "http://www.w3.org/TR/2001/REC-SVG-20010904/DTD/svg10.dtd">
<svg version="1.0" xmlns="http://www.w3.org/2000/svg"
 width="512.000000pt" height="512.000000pt" viewBox="0 0 512.000000 512.000000"
 preserveAspectRatio="xMidYMid meet">

<g transform="translate(0.000000,512.000000) scale(0.100000,-0.100000)"
fill="#000000" stroke="none">
<path d="M1225 4535 l-25 -24 0 -483 0 -483 660 -660 c652 -652 661 -660 700
-660 39 0 48 8 700 660 l660 660 0 483 0 483 -25 24 c-16 17 -35 25 -57 25
-30 0 -85 -53 -655 -622 l-623 -623 -623 623 c-570 569 -625 622 -655 622 -22
0 -41 -8 -57 -25z m1335 -1415 c32 0 72 37 617 582 l583 583 0 -340 0 -340
-600 -600 -600 -600 -600 600 -600 600 0 340 0 340 583 -583 c545 -545 585
-582 617 -582z"/>
<path d="M1245 2898 c-45 -26 -44 -20 -45 -528 l0 -485 663 -662 c623 -624
664 -663 697 -663 33 0 74 39 697 663 l663 662 0 486 c0 474 0 486 -20 507
-25 26 -63 37 -85 24 -10 -5 -296 -288 -636 -628 l-619 -619 -618 618 c-339
340 -624 622 -632 627 -20 13 -41 12 -65 -2z m1315 -1428 c33 0 70 35 617 582
l583 583 0 -340 0 -340 -600 -600 -600 -600 -600 600 -600 600 0 340 0 340
583 -583 c547 -547 584 -582 617 -582z"/>
</g>
</svg>
