<?xml version="1.0" encoding="utf-8"?>
<!-- Svg Vector Icons : https://www.onlinewebfonts.com/icon -->
<!DOCTYPE svg PUBLIC "-//W3C//DTD SVG 1.1//EN" "https://www.w3.org/Graphics/SVG/1.1/DTD/svg11.dtd">
<svg version="1.1" xmlns="https://www.w3.org/2000/svg" xmlns:xlink="https://www.w3.org/1999/xlink" x="0px" y="0px" viewBox="0 0 1000 1000" enable-background="new 0 0 1000 1000" xml:space="preserve">
<metadata> Svg Vector Icons : https://www.onlinewebfonts.com/icon </metadata>
<g>
<path style="fill:#ffffff" d="M500,10C229.4,10,10,229.4,10,500c0,270.6,219.4,490,490,490c270.6,0,490-219.4,490-490C990,229.4,770.6,10,500,10z M500,962.7C244.5,962.7,37.3,755.5,37.3,500C37.3,244.5,244.5,37.3,500,37.3c255.5,0,462.7,207.1,462.7,462.7C962.7,755.5,755.5,962.7,500,962.7z"/>
<path style="fill:#ffffff" d="M731,634c-57-35.5-113.8-71.6-170.4-107.8c-6.4-4.1-11-4.8-17.5-0.3c-11.1,7.8-23.3,14.2-34.5,22c-6.4,4.4-11.4,4.2-17.7-0.2c-11.2-7.8-22.6-15.3-34.7-21.6c-4.2-2.2-11.8-2.3-15.7,0.1c-57.9,36-115.3,72.6-173.1,108.7c-6.9,4.3-8.1,8.7-5.8,16.2c6.3,20.8,23.2,32.6,48.7,32.7c63,0.1,126,0,189,0c63,0,126,0.1,189,0c25.3,0,42.8-10.9,49.4-29.9C740.7,645.5,739.8,639.5,731,634z"/>
<path style="fill:#ffffff" d="M261,401.5c0,66.5,0,131.2,0,197.4c52.2-33.2,102.8-65.5,155.1-98.7C363.7,466.8,312.9,434.4,261,401.5z"/>
<path style="fill:#ffffff" d="M686.2,316.1c-62.1,0-124.1,0-186.2,0c-60.6,0-121.3-0.1-181.9,0.1c-7.5,0-15.1,0.3-22.4,1.8c-17.6,3.6-28.8,14.4-34.1,31.8c-2.3,7.7-0.4,11.7,6.4,16c74,46.6,147.8,93.4,221.4,140.6c7.9,5.1,13.2,5,21.1,0c72.8-46.6,145.8-93.1,219.2-138.8c10.6-6.6,11.6-13.3,7.2-23.1C726.9,322.6,708.4,316.1,686.2,316.1z"/>
<path style="fill:#ffffff" d="M739,401.6c-52.3,33.3-102.9,65.5-154.8,98.6c51.8,33,102.5,65.3,154.8,98.5C739,531.9,739,468,739,401.6z"/>
</g>
</svg>