<?xml version="1.0" encoding="utf-8"?>
<!-- Svg Vector Icons : https://www.onlinewebfonts.com/icon -->
<!DOCTYPE svg PUBLIC "-//W3C//DTD SVG 1.1//EN" "https://www.w3.org/Graphics/SVG/1.1/DTD/svg11.dtd">
<svg version="1.1" xmlns="https://www.w3.org/2000/svg" xmlns:xlink="https://www.w3.org/1999/xlink" x="0px" y="0px" viewBox="0 0 1000 1000" enable-background="new 0 0 1000 1000" xml:space="preserve">
<metadata> Svg Vector Icons : https://www.onlinewebfonts.com/icon </metadata>
<g><path style="fill:#ffffff" d="M607.4,376.3c-20.7,0-36.1,5.2-48.1,11.8c-1.9-6.8-8.3-11.9-15.7-10.4h-91.2c-9-1.5-16.3,5.8-13.5,15.3v336.2c-2.8,8.6,4.5,15.9,13.5,15.3h91.2c9,0.6,16.3-6.7,16.3-15.7l0-203.2c0-0.1-0.4-9.8,5.8-16.5c4.9-5.3,13.4-8,25.1-8c19.5,0,28.2,8,31.4,25.8v201.9c-3.2,9,4.1,16.3,13.1,15.7h96.1c9,0.6,16.3-6.7,13.1-15.7V520.1C747.7,414,672.1,376.3,607.4,376.3L607.4,376.3z M715.1,713.9h-63.4V526.9c0-36.1-23.3-58.5-60.8-58.5c-21.2,0-37.7,6.2-49.1,18.5c-15.8,17.1-14.6,38.8-11.2,43.6v183.4h-61.8v-305h58.6v10.3c0,6.2,3.5,11.9,9.1,14.6c5.6,2.7,12.2,2,17.2-1.7l4.3-3.3c12.4-9.7,25.2-19.9,49.6-19.9c25.2,0,107.7,8,107.7,111.1L715.1,713.9L715.1,713.9z M347.2,223.9c-34.3,0-62.2,27.9-62.2,62.2c0,34.3,27.9,62.2,62.2,62.2c34.3,0,62.2-27.9,62.2-62.2C409.4,251.8,381.5,223.9,347.2,223.9z M347.2,315.6c-16.3,0-29.5-13.3-29.5-29.5s13.3-29.5,29.5-29.5c16.3,0,29.5,13.3,29.5,29.5S363.5,315.6,347.2,315.6z M390.8,376.3h-90.7c-9,0-16.3,7.3-14.1,16.8v336.2c-2.3,8.6,5,15.9,14.1,15.3h90.7c9,0.6,16.3-6.7,16.3-15.7V392.6C407.2,383.6,399.9,376.3,390.8,376.3L390.8,376.3z M377.8,713.9h-61.3v-305h61.3V713.9z M500,10C229.8,10,10,229.8,10,500s219.8,490,490,490c270.2,0,490-219.8,490-490S770.2,10,500,10z M500,957.4C247.8,957.4,42.6,752.2,42.6,500S247.8,42.6,500,42.6S957.4,247.8,957.4,500S752.2,957.4,500,957.4z"/></g>
</svg>